#!OML:ASF F:\VICON\USERDATA\INSTALL\rory3\rory3.ASF
:FULLY-SPECIFIED
:DEGREES
266
root 11.0903 17.7617 -5.1652 -111.57 88.2548 -109.981
lowerback 11.6526 -0.438913 0.538389
upperback 1.66332 -0.426883 0.452965
thorax -4.79294 -0.189156 0.233548
lowerneck -12.17 -9.25055 -14.1857
upperneck 33.202 -13.5908 13.7698
head 15.8842 -5.54694 6.03738
rclavicle 7.33018e-016 -2.78299e-015
rhumerus -41.4202 -16.2909 -68.8204
rradius 39.0667
rwrist -0.0835716
rhand -18.2414 7.77503
rfingers 7.12502
rthumb 8.03732 -22.0521
lclavicle 7.33018e-016 -2.78299e-015
lhumerus -29.295 4.73816 83.1254
lradius 31.7647
lwrist -9.44396
lhand -15.3255 23.3615
lfingers 7.12502
lthumb 10.8508 53.0612
rfemur -7.97486 4.38803 19.6545
rtibia 31.8227
rfoot -19.1587 -1.18286
rtoes 3.75604
lfemur -15.8551 -0.778343 -18.1027
ltibia 38.58
lfoot -18.9771 -28.0253
ltoes -8.17503
267
root 11.0955 17.7451 -5.11831 -116.263 88.4739 -114.691
lowerback 11.5188 -0.472021 0.345545
upperback 1.64958 -0.499305 0.417043
thorax -4.73175 -0.22249 0.315042
lowerneck -12.1522 -9.20745 -14.2403
upperneck 33.1796 -13.4987 13.7313
head 15.85 -5.52168 6.0465
rclavicle 4.14342e-015 -2.48481e-016
rhumerus -41.5307 -16.478 -68.5592
rradius 39.1696
rwrist -0.450859
rhand -18.3717 7.34494
rfingers 7.12502
rthumb 7.91158 -22.487
lclavicle 4.14342e-015 -2.48481e-016
lhumerus -29.3993 4.93857 83.1523
lradius 31.6684
lwrist -9.66488
lhand -15.6282 23.6179
lfingers 7.12502
lthumb 10.5588 53.3327
rfemur -8.28291 4.46814 19.6165
rtibia 32.4397
rfoot -19.4272 -1.61212
rtoes 2.76236
lfemur -15.828 -0.537426 -19.1325
ltibia 38.2242
lfoot -18.6623 -29.0516
ltoes -6.50495
268
root 11.1022 17.732 -5.07145 -120.6 88.5782 -119.029
lowerback 11.438 -0.476171 0.325042
upperback 1.61536 -0.513327 0.342248
thorax -4.72324 -0.230381 0.250248
lowerneck -12.0874 -9.24702 -14.3791
upperneck 33.0783 -13.5852 13.9096
head 15.8367 -5.55949 6.13017
rclavicle 5.62188e-015 0
rhumerus -41.708 -16.7674 -68.3413
rradius 39.1541
rwrist -0.698235
rhand -18.6307 7.06079
rfingers 7.12502
rthumb 7.66165 -22.7804
lclavicle 5.62188e-015 0
lhumerus -29.5237 5.02046 83.1345
lradius 31.5621
lwrist -9.96157
lhand -15.8542 23.901
lfingers 7.12502
lthumb 10.3408 53.6267
rfemur -8.55616 4.43535 19.6742
rtibia 33.0677
rfoot -19.767 -1.83314
rtoes 2.62554
lfemur -15.7184 -0.252837 -19.9877
ltibia 37.7659
lfoot -18.9042 -29.3295
ltoes -7.5104
269
root 11.1088 17.7179 -5.02315 -128.331 88.7746 -126.67
lowerback 11.4745 -0.466221 0.0645779
upperback 1.58758 -0.534322 0.314686
thorax -4.77027 -0.236698 0.372048
lowerneck -12.1042 -9.26991 -14.489
upperneck 33.1219 -13.6025 13.9369
head 15.8809 -5.57594 6.16193
rclavicle 2.39163e-015 2.28602e-015
rhumerus -41.8933 -17.0828 -68.0039
rradius 39.0763
rwrist -0.692893
rhand -18.5868 7.17149
rfingers 7.12502
rthumb 7.70394 -22.6682
lclavicle 2.39163e-015 2.28602e-015
lhumerus -29.7089 5.09059 83.2273
lradius 31.4769
lwrist -10.0773
lhand -15.5241 23.513
lfingers 7.12502
lthumb 10.6593 53.2226
rfemur -8.70432 4.19344 19.547
rtibia 33.637
rfoot -20.11 -1.70247
rtoes 2.89605
lfemur -15.465 0.0992643 -20.9572
ltibia 37.2379
lfoot -19.7995 -28.7417
ltoes -11.0318
270
root 11.1172 17.702 -4.97207 -145.532 89.048 -143.633
lowerback 11.6409 -0.489638 -0.463684
upperback 1.61185 -0.631558 0.283597
thorax -4.83102 -0.274732 0.653905
lowerneck -12.1982 -9.17134 -14.3808
upperneck 33.2093 -13.428 13.7907
head 15.8817 -5.50036 6.11501
rclavicle -1.19768e-014 5.31749e-015
rhumerus -42.0787 -17.2412 -67.7081
rradius 39.1669
rwrist -0.706954
rhand -18.4809 7.2183
rfingers 7.12502
rthumb 7.80624 -22.6176
lclavicle -1.19768e-014 5.31749e-015
lhumerus -29.925 5.30137 83.2646
lradius 31.461
lwrist -10.1409
lhand -15.0972 23.3727
lfingers 7.12502
lthumb 11.071 53.0607
rfemur -8.65298 4.11521 19.2878
rtibia 34.1434
rfoot -20.4252 -1.99156
rtoes 1.8098
lfemur -14.9777 0.335817 -22.0382
ltibia 36.6453
lfoot -19.9361 -28.4338
ltoes -11.7535
271
root 11.1266 17.6911 -4.92581 -149.656 89.1148 -147.653
lowerback 11.6886 -0.516419 -0.522895
upperback 1.59524 -0.677002 0.246286
thorax -4.874 -0.296235 0.656035
lowerneck -12.2196 -9.08342 -14.1963
upperneck 33.1948 -13.3113 13.7036
head 15.8257 -5.43689 6.064
rclavicle 5.53491e-015 -1.44119e-015
rhumerus -42.2593 -17.3262 -67.5953
rradius 39.2272
rwrist -0.789399
rhand -18.7753 6.91011
rfingers 7.12502
rthumb 7.52207 -22.9361
lclavicle 5.53491e-015 -1.44119e-015
lhumerus -30.0837 5.21163 83.2111
lradius 31.4208
lwrist -9.92554
lhand -15.0134 23.4295
lfingers 7.12502
lthumb 11.1518 53.1132
rfemur -8.72851 4.09313 19.3848
rtibia 34.5976
rfoot -20.7237 -2.57295
rtoes 0.060494
lfemur -14.6281 0.689387 -22.6766
ltibia 36.0288
lfoot -18.9236 -28.7947
ltoes -9.09148
272
root 11.1385 17.68 -4.8777 -150.408 89.1455 -148.407
lowerback 11.6039 -0.439686 -0.552432
upperback 1.55826 -0.581504 0.223703
thorax -4.86708 -0.249477 0.633642
lowerneck -12.1942 -9.13787 -13.9858
upperneck 33.1833 -13.3984 13.55
head 15.7939 -5.46452 5.93756
rclavicle -7.56003e-015 3.08116e-015
rhumerus -42.5242 -17.7634 -67.3377
rradius 39.1252
rwrist -0.690545
rhand -18.9951 6.82901
rfingers 7.12502
rthumb 7.30988 -23.0247
lclavicle -7.56003e-015 3.08116e-015
lhumerus -30.109 5.01221 83.2358
lradius 31.2413
lwrist -9.788
lhand -15.0101 23.4157
lfingers 7.12502
lthumb 11.155 53.0992
rfemur -8.88981 4.12085 19.5569
rtibia 34.9867
rfoot -20.9497 -3.00997
rtoes -1.01336
lfemur -14.4031 1.1336 -23.1728
ltibia 35.43
lfoot -18.6608 -28.1875
ltoes -8.92271
273
root 11.1503 17.6657 -4.82647 -152.878 89.1661 -150.855
lowerback 11.5556 -0.360966 -0.701095
upperback 1.52768 -0.494922 0.257858
thorax -4.87192 -0.204221 0.739516
lowerneck -12.2234 -9.20466 -14.0022
upperneck 33.2423 -13.4819 13.509
head 15.8453 -5.50323 5.90832
rclavicle 1.13991e-015 -3.47873e-016
rhumerus -42.8201 -18.1848 -67.0332
rradius 39.0441
rwrist -0.726775
rhand -18.9675 7.1528
rfingers 7.12502
rthumb 7.3365 -22.7
lclavicle 1.13991e-015 -3.47873e-016
lhumerus -30.1238 5.14052 83.2725
lradius 30.996
lwrist -10.0991
lhand -15.13 23.4536
lfingers 7.12502
lthumb 11.0394 53.1433
rfemur -8.98793 4.01112 19.6819
rtibia 35.303
rfoot -21.0714 -2.76901
rtoes -0.689373
lfemur -14.1778 1.43356 -23.6055
ltibia 34.8772
lfoot -19.1432 -26.413
ltoes -10.9742
274
root 11.1623 17.651 -4.77822 -148.977 89.0918 -146.925
lowerback 11.5263 -0.438704 -0.799932
upperback 1.47332 -0.604407 0.400005
thorax -4.90814 -0.255479 0.960878
lowerneck -12.2242 -9.14305 -14.1741
upperneck 33.2751 -13.3383 13.4828
head 15.8462 -5.46891 5.95809
rclavicle -2.73484e-015 3.29237e-015
rhumerus -42.8216 -17.9105 -66.9805
rradius 38.8791
rwrist -1.05807
rhand -18.8421 7.39657
rfingers 7.12502
rthumb 7.45753 -22.452
lclavicle -2.73484e-015 3.29237e-015
lhumerus -30.2885 5.60062 83.2571
lradius 30.8344
lwrist -10.1931
lhand -14.9858 23.4604
lfingers 7.12502
lthumb 11.1784 53.1426
rfemur -9.04831 3.66264 19.89
rtibia 35.5731
rfoot -21.2116 -2.04132
rtoes 0.673909
lfemur -13.9673 1.5674 -23.8175
ltibia 34.3634
lfoot -18.8265 -24.6501
ltoes -9.29403
